<?xml version="1.0" standalone="no"?>
<!DOCTYPE svg PUBLIC "-//W3C//DTD SVG 1.1//EN" "http://www.w3.org/Graphics/SVG/1.1/DTD/svg11.dtd" >
<svg xmlns="http://www.w3.org/2000/svg" xmlns:xlink="http://www.w3.org/1999/xlink" version="1.1">
<metadata></metadata>
<defs>
<font id="chopsicregular" horiz-adv-x="1700" >
<font-face units-per-em="2048" ascent="1638" descent="-410" />
<missing-glyph horiz-adv-x="400" />
<glyph unicode="&#xd;" horiz-adv-x="508" />
<glyph horiz-adv-x="0" />
<glyph horiz-adv-x="0" />
<glyph unicode=" "  horiz-adv-x="400" />
<glyph unicode="&#x09;" horiz-adv-x="400" />
<glyph unicode="&#xa0;" horiz-adv-x="400" />
<glyph unicode="!" horiz-adv-x="500" d="M0 0v400h400v-400h-400zM0 500v900h400v-900h-400z" />
<glyph unicode="&#x22;" horiz-adv-x="1000" d="M0 600v800h400v-400zM500 600v800h400v-400z" />
<glyph unicode="#" d="M0 250v400h200v100h-200v400h200v100l400 400v-500h400v250h400v-250h200v-400h-200v-100h200v-400h-200v-100l-400 -400v500h-400v-250h-400v250h-200zM600 650h400v100h-400v-100z" />
<glyph unicode="$" d="M-200 0l400 400h400v100h-150q-186 0 -318 132t-132 318t132 318t318 132h150v200h400v-200h800l-400 -400h-400v-100h150q186 0 318 -132t132 -318t-132 -318t-318 -132h-150v-200h-400v200h-800zM400 950q0 -21 14.5 -35.5t35.5 -14.5h150v100h-150q-21 0 -35.5 -14.5 t-14.5 -35.5zM1000 400h150q21 0 35.5 14.5t14.5 35.5t-14.5 35.5t-35.5 14.5h-150v-100z" />
<glyph unicode="%" d="M-200 0l1417 1400h583l-1417 -1400h-583zM0 1000v400h400v-400h-400zM1200 0v400h400v-400h-400z" />
<glyph unicode="&#x26;" d="M0 450q0 140 75 250q-75 110 -75 250q0 186 132 318t318 132h350v-400h-350q-21 0 -35.5 -14.5t-14.5 -35.5t14.5 -35.5t35.5 -14.5h450v200h400v-200h300v-400h-300v-100h100l400 -400h-1350q-186 0 -318 132t-132 318zM400 450q0 -21 14.5 -35.5t35.5 -14.5h450v100 h-450q-21 0 -35.5 -14.5t-14.5 -35.5z" />
<glyph unicode="'" horiz-adv-x="500" d="M0 600v800h400v-400z" />
<glyph unicode="(" horiz-adv-x="800" d="M0 600v200q0 290 205 495t495 205v-400q-124 0 -212 -88t-88 -212v-200q0 -124 88 -212t212 -88v-400q-290 0 -495 205t-205 495z" />
<glyph unicode=")" horiz-adv-x="800" d="M0 -100v400q124 0 212 88t88 212v200q0 124 -88 212t-212 88v400q290 0 495 -205t205 -495v-200q0 -290 -205 -495t-495 -205z" />
<glyph unicode="*" horiz-adv-x="1300" d="M-20 673l220 127l-220 127l200 346l220 -127v254h400v-254l220 127l200 -346l-220 -127l220 -127l-200 -346l-220 127v-254h-400v254l-220 -127z" />
<glyph unicode="+" horiz-adv-x="1300" d="M0 500v400h400v400h400v-400h400v-400h-400v-400h-400v400h-400z" />
<glyph unicode="," horiz-adv-x="500" d="M0 -400v800h400v-400z" />
<glyph unicode="-" horiz-adv-x="1300" d="M0 500v400h1200v-400h-1200z" />
<glyph unicode="." horiz-adv-x="500" d="M0 0v400h400v-400h-400z" />
<glyph unicode="/" d="M-200 0l1417 1400h583l-1417 -1400h-583z" />
<glyph unicode="0" d="M0 700q0 290 205 495t495 205h200q290 0 495 -205t205 -495t-205 -495t-495 -205h-200q-290 0 -495 205t-205 495zM400 700q0 -124 88 -212t212 -88h200q124 0 212 88t88 212t-88 212t-212 88h-200q-124 0 -212 -88t-88 -212z" />
<glyph unicode="1" horiz-adv-x="500" d="M0 0v1150l400 400v-1550h-400z" />
<glyph unicode="2" d="M-200 1400h1350q186 0 318 -132t132 -318t-132 -318t-318 -132h-700q-21 0 -35.5 -14.5t-14.5 -35.5v-50h1000l400 -400h-1800v450q0 186 132 318t318 132h700q21 0 35.5 14.5t14.5 35.5t-14.5 35.5t-35.5 14.5h-950z" />
<glyph unicode="3" d="M-200 0l400 400h950q21 0 35.5 14.5t14.5 35.5t-14.5 35.5t-35.5 14.5h-850v400h850q21 0 35.5 14.5t14.5 35.5t-14.5 35.5t-35.5 14.5h-950l-400 400h1350q186 0 318 -132t132 -318q0 -140 -75 -250q75 -110 75 -250q0 -186 -132 -318t-318 -132h-1350z" />
<glyph unicode="4" d="M0 500v650l400 400v-650h800v500h400v-1150l-400 -400v650h-1200z" />
<glyph unicode="5" d="M-200 0l400 400h950q21 0 35.5 14.5t14.5 35.5t-14.5 35.5t-35.5 14.5h-1150v900h1800l-400 -400h-1000v-100h750q186 0 318 -132t132 -318t-132 -318t-318 -132h-1350z" />
<glyph unicode="6" d="M0 450v500q0 186 132 318t318 132h1350l-400 -400h-950q-21 0 -35.5 -14.5t-14.5 -35.5v-50h750q186 0 318 -132t132 -318t-132 -318t-318 -132h-700q-186 0 -318 132t-132 318zM400 450q0 -21 14.5 -35.5t35.5 -14.5h700q21 0 35.5 14.5t14.5 35.5t-14.5 35.5 t-35.5 14.5h-750v-50z" />
<glyph unicode="7" d="M-200 0l1017 1000h-817v400h1800l-1417 -1400h-583z" />
<glyph unicode="8" d="M0 450q0 140 75 250q-75 110 -75 250q0 186 132 318t318 132h700q186 0 318 -132t132 -318q0 -140 -75 -250q75 -110 75 -250q0 -186 -132 -318t-318 -132h-700q-186 0 -318 132t-132 318zM400 450q0 -21 14.5 -35.5t35.5 -14.5h700q21 0 35.5 14.5t14.5 35.5t-14.5 35.5 t-35.5 14.5h-700q-21 0 -35.5 -14.5t-14.5 -35.5zM400 950q0 -21 14.5 -35.5t35.5 -14.5h700q21 0 35.5 14.5t14.5 35.5t-14.5 35.5t-35.5 14.5h-700q-21 0 -35.5 -14.5t-14.5 -35.5z" />
<glyph unicode="9" d="M-200 0l400 400h950q21 0 35.5 14.5t14.5 35.5v50h-750q-186 0 -318 132t-132 318t132 318t318 132h700q186 0 318 -132t132 -318v-500q0 -186 -132 -318t-318 -132h-1350zM400 950q0 -21 14.5 -35.5t35.5 -14.5h750v50q0 21 -14.5 35.5t-35.5 14.5h-700 q-21 0 -35.5 -14.5t-14.5 -35.5z" />
<glyph unicode=":" horiz-adv-x="500" d="M0 0v400h400v-400h-400zM0 624v400h400v-400h-400z" />
<glyph unicode=";" horiz-adv-x="500" d="M0 -400v800h400v-400zM0 624v400h400v-400h-400z" />
<glyph unicode="&#x3c;" horiz-adv-x="800" d="M0 600v200q0 290 205 495t495 205v-400q-124 0 -212 -88t-88 -212v-200q0 -124 88 -212t212 -88v-400q-290 0 -495 205t-205 495z" />
<glyph unicode="=" horiz-adv-x="1300" d="M0 250v400h1200v-400h-1200zM0 750v400h1200v-400h-1200z" />
<glyph unicode="&#x3e;" horiz-adv-x="800" d="M0 -100v400q124 0 212 88t88 212v200q0 124 -88 212t-212 88v400q290 0 495 -205t205 -495v-200q0 -290 -205 -495t-495 -205z" />
<glyph unicode="?" d="M0 0v400h400v-400h-400zM0 500v400h1150q21 0 35.5 14.5t14.5 35.5t-14.5 35.5t-35.5 14.5h-1150v400h1150q186 0 318 -132t132 -318t-132 -318t-318 -132h-1150z" />
<glyph unicode="@" d="M0 700q0 290 205 495t495 205h450q186 0 318 -132t132 -318t-132 -318t-318 -132h-450v400h450q21 0 35.5 14.5t14.5 35.5t-14.5 35.5t-35.5 14.5h-450q-124 0 -212 -88t-88 -212t88 -212t212 -88h700l400 -400h-1100q-290 0 -495 205t-205 495z" />
<glyph unicode="A" d="M0 0v700q0 290 205 495t495 205h200q290 0 495 -205t205 -495v-450l-400 -400v450h-800v-300h-400zM400 700h800q0 124 -88 212t-212 88h-200q-124 0 -212 -88t-88 -212z" />
<glyph unicode="B" d="M0 250v1150h1150q186 0 318 -132t132 -318q0 -140 -75 -250q75 -110 75 -250q0 -186 -132 -318t-318 -132h-300l-400 400h700q21 0 35.5 14.5t14.5 35.5t-14.5 35.5t-35.5 14.5h-750v-650zM400 900h750q21 0 35.5 14.5t14.5 35.5t-14.5 35.5t-35.5 14.5h-750v-100z" />
<glyph unicode="C" d="M0 700q0 290 205 495t495 205h1100l-400 -400h-700q-124 0 -212 -88t-88 -212t88 -212t212 -88h900v-400h-900q-290 0 -495 205t-205 495z" />
<glyph unicode="D" d="M0 250v1150h900q290 0 495 -205t205 -495t-205 -495t-495 -205h-50l-400 400h450q124 0 212 88t88 212t-88 212t-212 88h-500v-1150z" />
<glyph unicode="E" d="M0 0v1400h1800l-400 -400h-1000v-100h1000v-400h-1000v-100h1200v-400h-1600z" />
<glyph unicode="F" d="M0 250v1150h1800l-400 -400h-1000v-100h1200v-400h-1200v-650z" />
<glyph unicode="G" d="M0 700q0 290 205 495t495 205h1100l-400 -400h-700q-124 0 -212 -88t-88 -212t88 -212t212 -88h500v100h-500v400h900v-900h-900q-290 0 -495 205t-205 495z" />
<glyph unicode="H" d="M0 0v1150l400 400v-650h800v500h400v-1150l-400 -400v650h-800v-500h-400z" />
<glyph unicode="I" horiz-adv-x="500" d="M0 0v1150l400 400v-1550h-400z" />
<glyph unicode="J" d="M0 700v100h400v-100q0 -124 88 -212t212 -88h200q124 0 212 88t88 212v850l400 -400v-450q0 -290 -205 -495t-495 -205h-200q-290 0 -495 205t-205 495z" />
<glyph unicode="K" d="M0 0v1150l400 400v-650h500q124 0 212 88t88 212v200h400v-200q0 -290 -205 -495l-5 -5l5 -5q205 -205 205 -395v-50l-400 -400v350q0 124 -88 212t-212 88h-500v-500h-400z" />
<glyph unicode="L" d="M0 0v1400h400v-1000h1000l400 -400h-1800z" />
<glyph unicode="M" d="M0 250v1150h383l417 -417l417 417h383v-1400h-400v817l-400 -400l-400 400v-967z" />
<glyph unicode="N" d="M0 250v1150h383l817 -817v967l400 -400v-1150h-383l-817 817v-967z" />
<glyph unicode="O" d="M0 700q0 290 205 495t495 205h200q290 0 495 -205t205 -495t-205 -495t-495 -205h-200q-290 0 -495 205t-205 495zM400 700q0 -124 88 -212t212 -88h200q124 0 212 88t88 212t-88 212t-212 88h-200q-124 0 -212 -88t-88 -212z" />
<glyph unicode="P" d="M0 250v1150h1150q186 0 318 -132t132 -318t-132 -318t-318 -132h-750v-650zM400 900h750q21 0 35.5 14.5t14.5 35.5t-14.5 35.5t-35.5 14.5h-750v-100z" />
<glyph unicode="Q" d="M0 700q0 290 205 495t495 205h200q290 0 495 -205t205 -495t-205 -495q-52 -52 -109 -91l314 -314h-566l-200 200h-134q-290 0 -495 205t-205 495zM400 700q0 -124 88 -212t212 -88h200q124 0 212 88t88 212t-88 212t-212 88h-200q-124 0 -212 -88t-88 -212z" />
<glyph unicode="R" d="M0 250v1150h1150q186 0 318 -132t132 -318t-132 -318q-75 -75 -168 -107l525 -525h-566l-859 859v-1009zM400 900h750q21 0 35.5 14.5t14.5 35.5t-14.5 35.5t-35.5 14.5h-750v-100z" />
<glyph unicode="S" d="M-200 0l400 400h950q21 0 35.5 14.5t14.5 35.5t-14.5 35.5t-35.5 14.5h-700q-186 0 -318 132t-132 318t132 318t318 132h1350l-400 -400h-950q-21 0 -35.5 -14.5t-14.5 -35.5t14.5 -35.5t35.5 -14.5h700q186 0 318 -132t132 -318t-132 -318t-318 -132h-1350z" />
<glyph unicode="T" d="M0 1000v400h1800l-400 -400h-400v-750l-400 -400v1150h-600z" />
<glyph unicode="U" d="M0 700v450l400 400v-850q0 -124 88 -212t212 -88h200q124 0 212 88t88 212v700h400v-700q0 -290 -205 -495t-495 -205h-200q-290 0 -495 205t-205 495z" />
<glyph unicode="V" d="M0 1000v150l400 400v-550q0 -224 88 -362t312 -228q224 90 312 228t88 362v400h400v-400q0 -390 -205 -645t-595 -355q-390 100 -595 355t-205 645z" />
<glyph unicode="W" horiz-adv-x="2500" d="M0 700v450l400 400v-850q0 -124 88 -212t212 -88t212 88t88 212v700h400v-700q0 -124 88 -212t212 -88t212 88t88 212v700h400v-700q0 -290 -205 -495t-495 -205t-495 205l-5 5l-5 -5q-205 -205 -495 -205t-495 205t-205 495z" />
<glyph unicode="X" d="M0 0v200q0 290 205 495l5 5l-5 5q-205 205 -205 395v50l400 400v-350q0 -124 88 -212t212 -88h200q124 0 212 88t88 212v200h400v-200q0 -290 -205 -495l-5 -5l5 -5q205 -205 205 -395v-50l-400 -400v350q0 124 -88 212t-212 88h-200q-124 0 -212 -88t-88 -212v-200h-400 z" />
<glyph unicode="Y" d="M0 1100v50l400 400v-450q0 -124 88 -212t212 -88h200q124 0 212 88t88 212v300h400v-300q0 -290 -205 -495q-169 -169 -395 -199v-406h-400v406q-226 30 -395 199q-205 205 -205 495z" />
<glyph unicode="Z" d="M-200 0l1017 1000h-817v400h1800l-1017 -1000h817v-400h-1800z" />
<glyph unicode="[" horiz-adv-x="800" d="M0 -100v1600h700v-400h-300v-800h300v-400h-700z" />
<glyph unicode="\" d="M-200 1400h583l1417 -1400h-583z" />
<glyph unicode="]" horiz-adv-x="800" d="M0 -100v400h300v800h-300v400h700v-1600h-700z" />
<glyph unicode="^" horiz-adv-x="500" d="M0 900v500h400v-500h-400z" />
<glyph unicode="_" horiz-adv-x="1500" d="M0 0v400h1400v-400h-1400z" />
<glyph unicode="`" horiz-adv-x="500" d="M0 1000v400h400v-800z" />
<glyph unicode="a" d="M0 0v700q0 290 205 495t495 205h200q290 0 495 -205t205 -495v-450l-400 -400v450h-800v-300h-400zM400 700h800q0 124 -88 212t-212 88h-200q-124 0 -212 -88t-88 -212z" />
<glyph unicode="b" d="M0 250v1150h1150q186 0 318 -132t132 -318q0 -140 -75 -250q75 -110 75 -250q0 -186 -132 -318t-318 -132h-300l-400 400h700q21 0 35.5 14.5t14.5 35.5t-14.5 35.5t-35.5 14.5h-750v-650zM400 900h750q21 0 35.5 14.5t14.5 35.5t-14.5 35.5t-35.5 14.5h-750v-100z" />
<glyph unicode="c" d="M0 700q0 290 205 495t495 205h1100l-400 -400h-700q-124 0 -212 -88t-88 -212t88 -212t212 -88h900v-400h-900q-290 0 -495 205t-205 495z" />
<glyph unicode="d" d="M0 250v1150h900q290 0 495 -205t205 -495t-205 -495t-495 -205h-50l-400 400h450q124 0 212 88t88 212t-88 212t-212 88h-500v-1150z" />
<glyph unicode="e" d="M0 0v1400h1800l-400 -400h-1000v-100h1000v-400h-1000v-100h1200v-400h-1600z" />
<glyph unicode="f" d="M0 250v1150h1800l-400 -400h-1000v-100h1200v-400h-1200v-650z" />
<glyph unicode="g" d="M0 700q0 290 205 495t495 205h1100l-400 -400h-700q-124 0 -212 -88t-88 -212t88 -212t212 -88h500v100h-500v400h900v-900h-900q-290 0 -495 205t-205 495z" />
<glyph unicode="h" d="M0 0v1150l400 400v-650h800v500h400v-1150l-400 -400v650h-800v-500h-400z" />
<glyph unicode="i" horiz-adv-x="500" d="M0 0v1150l400 400v-1550h-400z" />
<glyph unicode="j" d="M0 700v100h400v-100q0 -124 88 -212t212 -88h200q124 0 212 88t88 212v850l400 -400v-450q0 -290 -205 -495t-495 -205h-200q-290 0 -495 205t-205 495z" />
<glyph unicode="k" d="M0 0v1150l400 400v-650h500q124 0 212 88t88 212v200h400v-200q0 -290 -205 -495l-5 -5l5 -5q205 -205 205 -395v-50l-400 -400v350q0 124 -88 212t-212 88h-500v-500h-400z" />
<glyph unicode="l" d="M0 0v1400h400v-1000h1000l400 -400h-1800z" />
<glyph unicode="m" d="M0 250v1150h383l417 -417l417 417h383v-1400h-400v817l-400 -400l-400 400v-967z" />
<glyph unicode="n" d="M0 250v1150h383l817 -817v967l400 -400v-1150h-383l-817 817v-967z" />
<glyph unicode="o" d="M0 700q0 290 205 495t495 205h200q290 0 495 -205t205 -495t-205 -495t-495 -205h-200q-290 0 -495 205t-205 495zM400 700q0 -124 88 -212t212 -88h200q124 0 212 88t88 212t-88 212t-212 88h-200q-124 0 -212 -88t-88 -212z" />
<glyph unicode="p" d="M0 250v1150h1150q186 0 318 -132t132 -318t-132 -318t-318 -132h-750v-650zM400 900h750q21 0 35.5 14.5t14.5 35.5t-14.5 35.5t-35.5 14.5h-750v-100z" />
<glyph unicode="q" d="M0 700q0 290 205 495t495 205h200q290 0 495 -205t205 -495t-205 -495q-52 -52 -109 -91l314 -314h-566l-200 200h-134q-290 0 -495 205t-205 495zM400 700q0 -124 88 -212t212 -88h200q124 0 212 88t88 212t-88 212t-212 88h-200q-124 0 -212 -88t-88 -212z" />
<glyph unicode="r" d="M0 250v1150h1150q186 0 318 -132t132 -318t-132 -318q-75 -75 -168 -107l525 -525h-566l-859 859v-1009zM400 900h750q21 0 35.5 14.5t14.5 35.5t-14.5 35.5t-35.5 14.5h-750v-100z" />
<glyph unicode="s" d="M-200 0l400 400h950q21 0 35.5 14.5t14.5 35.5t-14.5 35.5t-35.5 14.5h-700q-186 0 -318 132t-132 318t132 318t318 132h1350l-400 -400h-950q-21 0 -35.5 -14.5t-14.5 -35.5t14.5 -35.5t35.5 -14.5h700q186 0 318 -132t132 -318t-132 -318t-318 -132h-1350z" />
<glyph unicode="t" d="M0 1000v400h1800l-400 -400h-400v-750l-400 -400v1150h-600z" />
<glyph unicode="u" d="M0 700v450l400 400v-850q0 -124 88 -212t212 -88h200q124 0 212 88t88 212v700h400v-700q0 -290 -205 -495t-495 -205h-200q-290 0 -495 205t-205 495z" />
<glyph unicode="v" d="M0 1000v150l400 400v-550q0 -224 88 -362t312 -228q224 90 312 228t88 362v400h400v-400q0 -390 -205 -645t-595 -355q-390 100 -595 355t-205 645z" />
<glyph unicode="w" horiz-adv-x="2500" d="M0 700v450l400 400v-850q0 -124 88 -212t212 -88t212 88t88 212v700h400v-700q0 -124 88 -212t212 -88t212 88t88 212v700h400v-700q0 -290 -205 -495t-495 -205t-495 205l-5 5l-5 -5q-205 -205 -495 -205t-495 205t-205 495z" />
<glyph unicode="x" d="M0 0v200q0 290 205 495l5 5l-5 5q-205 205 -205 395v50l400 400v-350q0 -124 88 -212t212 -88h200q124 0 212 88t88 212v200h400v-200q0 -290 -205 -495l-5 -5l5 -5q205 -205 205 -395v-50l-400 -400v350q0 124 -88 212t-212 88h-200q-124 0 -212 -88t-88 -212v-200h-400 z" />
<glyph unicode="y" d="M0 1100v50l400 400v-450q0 -124 88 -212t212 -88h200q124 0 212 88t88 212v300h400v-300q0 -290 -205 -495q-169 -169 -395 -199v-406h-400v406q-226 30 -395 199q-205 205 -205 495z" />
<glyph unicode="z" d="M-200 0l1017 1000h-817v400h1800l-1017 -1000h817v-400h-1800z" />
<glyph unicode="{" horiz-adv-x="1000" d="M0 500v400h206q30 226 199 395q205 205 495 205v-400q-124 0 -212 -88t-88 -212v-200q0 -124 88 -212t212 -88v-400q-290 0 -495 205q-169 169 -199 395h-206z" />
<glyph unicode="|" horiz-adv-x="500" d="M0 -100v1600h400v-1600h-400z" />
<glyph unicode="}" horiz-adv-x="1000" d="M0 -100v400q124 0 212 88t88 212v200q0 124 -88 212t-212 88v400q290 0 495 -205q169 -169 199 -395h206v-400h-206q-30 -226 -199 -395q-205 -205 -495 -205z" />
<glyph unicode="~" horiz-adv-x="1300" d="M0 500v400h1200v-400h-1200z" />
<glyph unicode="&#xad;" horiz-adv-x="1300" d="M0 500v400h1200v-400h-1200z" />
<glyph unicode="&#x2000;" horiz-adv-x="825" />
<glyph unicode="&#x2001;" horiz-adv-x="1650" />
<glyph unicode="&#x2002;" horiz-adv-x="825" />
<glyph unicode="&#x2003;" horiz-adv-x="1650" />
<glyph unicode="&#x2004;" horiz-adv-x="550" />
<glyph unicode="&#x2005;" horiz-adv-x="412" />
<glyph unicode="&#x2006;" horiz-adv-x="275" />
<glyph unicode="&#x2007;" horiz-adv-x="275" />
<glyph unicode="&#x2008;" horiz-adv-x="206" />
<glyph unicode="&#x2009;" horiz-adv-x="330" />
<glyph unicode="&#x200a;" horiz-adv-x="91" />
<glyph unicode="&#x2010;" horiz-adv-x="1300" d="M0 500v400h1200v-400h-1200z" />
<glyph unicode="&#x2011;" horiz-adv-x="1300" d="M0 500v400h1200v-400h-1200z" />
<glyph unicode="&#x2012;" horiz-adv-x="1300" d="M0 500v400h1200v-400h-1200z" />
<glyph unicode="&#x2013;" horiz-adv-x="1124" d="M0 500v400h1024v-400h-1024z" />
<glyph unicode="&#x2014;" horiz-adv-x="2148" d="M0 500v400h2048v-400h-2048z" />
<glyph unicode="&#x202f;" horiz-adv-x="330" />
<glyph unicode="&#x205f;" horiz-adv-x="412" />
<glyph unicode="&#x25fc;" horiz-adv-x="1550" d="M0 0v1550h1550v-1550h-1550z" />
</font>
</defs>
</svg>
